<svg width="31" height="28" viewBox="0 0 31 28" fill="none" xmlns="http://www.w3.org/2000/svg">
<path d="M1.25 8.0625C1.25 7.096 2.0335 6.3125 3 6.3125H5C5.9665 6.3125 6.75 7.096 6.75 8.0625V18.0625C6.75 19.3051 7.75736 20.3125 9 20.3125H23C24.2426 20.3125 25.25 19.3051 25.25 18.0625V8.0625C25.25 7.096 26.0335 6.3125 27 6.3125H29C29.9665 6.3125 30.75 7.096 30.75 8.0625V21.0625C30.75 23.6859 28.6234 25.8125 26 25.8125H6C3.37665 25.8125 1.25 23.6859 1.25 21.0625V8.0625Z" fill="#F7FEE7" stroke="#84CC16" stroke-width="0.5"/>
<path d="M9.25 7.5625C9.25 6.25082 10.3133 5.1875 11.625 5.1875H20.375C21.6867 5.1875 22.75 6.25082 22.75 7.5625V17.1875C22.75 17.5327 22.4702 17.8125 22.125 17.8125H9.875C9.52982 17.8125 9.25 17.5327 9.25 17.1875V7.5625Z" fill="#F7FEE7" stroke="#84CC16" stroke-width="0.5"/>
</svg>
